M48
;GenerationSoftware,Autodesk,EAGLE,9.7.0*%
;CreationDate,2024-08-08T20:46:30Z*%
FMAT,2
ICI,OFF
METRIC,TZ,000.000
T1C0.800
%
G90
M71
T1
X60250Y22750
X12000Y22250
X44250Y16500
X44250Y52250
X53250Y17750
X46750Y48250
X53750Y26250
X49000Y44500
X51750Y48500
X52000Y10250
X26500Y18750
X58250Y13250
X16300Y5900
X18840Y5900
X21380Y5900
X23920Y5900
X26460Y5900
X29000Y5900
X31540Y5900
X34080Y5900
X36620Y5900
X39160Y5900
X41700Y5900
X44240Y5900
X46780Y5900
X49320Y5900
X51860Y5900
X54400Y5900
X61900Y12316
X61900Y14856
X64440Y12316
X64440Y14856
X66980Y12316
X66980Y14856
X67984Y97984
X2016Y2016
X67984Y2016
X2016Y97984
X54400Y21400
X51860Y21400
X49320Y21400
X46780Y21400
X44240Y21400
X41700Y21400
X39160Y21400
X36620Y21400
X34080Y21400
X31540Y21400
X29000Y21400
X26460Y21400
X23920Y21400
X21380Y21400
X18840Y21400
X16300Y21400
X16100Y73700
X18640Y73700
X21180Y73700
X23720Y73700
X26260Y73700
X28800Y73700
X31340Y73700
X33880Y73700
X36420Y73700
X38960Y73700
X41500Y73700
X44040Y73700
X46580Y73700
X49120Y73700
X51660Y73700
X54200Y73700
X54216Y91700
X51676Y91700
X49136Y91700
X46596Y91700
X44056Y91700
X41516Y91700
X38976Y91700
X36436Y91700
X33896Y91700
X31356Y91700
X28816Y91700
X26276Y91700
X23736Y91700
X21196Y91700
X18656Y91700
X16116Y91700
X16100Y70500
X18640Y70500
X21180Y70500
X23720Y70500
X26260Y70500
X28800Y70500
X31340Y70500
X33880Y70500
X36420Y70500
X38960Y70500
X41500Y70500
X44040Y70500
X46580Y70500
X49120Y70500
X51660Y70500
X54200Y70500
X54200Y94900
X51660Y94900
X49120Y94900
X46580Y94900
X44040Y94900
X41500Y94900
X38960Y94900
X36420Y94900
X33880Y94900
X31340Y94900
X28800Y94900
X26260Y94900
X23720Y94900
X21180Y94900
X18640Y94900
X16100Y94900
X26300Y61400
X23760Y61400
X21220Y61400
X26300Y64400
X23760Y64400
X21220Y64400
X51800Y25100
X51800Y27640
M30